<svg width="25" height="24" viewBox="0 0 25 24" fill="none" xmlns="http://www.w3.org/2000/svg">
<path d="M12.0764 22.75C6.14642 22.75 1.32642 17.93 1.32642 12C1.32642 6.07 6.14642 1.25 12.0764 1.25C18.0064 1.25 22.8264 6.07 22.8264 12C22.8264 17.93 18.0064 22.75 12.0764 22.75ZM12.0764 2.75C6.97642 2.75 2.82642 6.9 2.82642 12C2.82642 17.1 6.97642 21.25 12.0764 21.25C17.1764 21.25 21.3264 17.1 21.3264 12C21.3264 6.9 17.1764 2.75 12.0764 2.75Z" fill="white"/>
<path d="M16.0764 12.75H8.07642C7.66642 12.75 7.32642 12.41 7.32642 12C7.32642 11.59 7.66642 11.25 8.07642 11.25H16.0764C16.4864 11.25 16.8264 11.59 16.8264 12C16.8264 12.41 16.4864 12.75 16.0764 12.75Z" fill="white"/>
<path d="M12.0764 16.75C11.6664 16.75 11.3264 16.41 11.3264 16V8C11.3264 7.59 11.6664 7.25 12.0764 7.25C12.4864 7.25 12.8264 7.59 12.8264 8V16C12.8264 16.41 12.4864 16.75 12.0764 16.75Z" fill="white"/>
</svg>
