<svg width="40" height="41" viewBox="0 0 40 41" fill="none" xmlns="http://www.w3.org/2000/svg">
<path d="M26.3501 34.1332C25.9168 34.1332 25.4668 34.1165 24.9835 34.0665C24.1168 33.9999 23.1335 33.8332 22.1168 33.5832L19.3168 32.9165C11.6335 31.0999 9.11679 27.0332 10.9168 19.3665L12.5501 12.3832C12.9168 10.7999 13.3501 9.51653 13.8835 8.44986C16.7501 2.5332 22.2335 3.06653 26.1335 3.9832L28.9168 4.6332C32.8168 5.54986 35.2835 6.99986 36.6668 9.21653C38.0335 11.4332 38.2501 14.2832 37.3335 18.1832L35.7001 25.1499C34.2668 31.2499 31.2835 34.1332 26.3501 34.1332ZM21.8668 5.91653C19.0835 5.91653 17.3168 7.06653 16.1335 9.5332C15.7001 10.4332 15.3168 11.5499 14.9835 12.9499L13.3501 19.9332C11.8668 26.2332 13.5835 28.9832 19.8835 30.4832L22.6835 31.1499C23.5835 31.3665 24.4335 31.4999 25.2001 31.5665C29.7168 32.0165 31.9835 30.0332 33.2501 24.5832L34.8835 17.6165C35.6335 14.3999 35.5335 12.1499 34.5335 10.5332C33.5335 8.91653 31.5668 7.81653 28.3335 7.06653L25.5501 6.41653C24.1668 6.0832 22.9335 5.91653 21.8668 5.91653Z" fill="white"/>
<path d="M13.8831 37.5838C9.59976 37.5838 6.86643 35.0171 5.11643 29.6004L2.98309 23.0171C0.616427 15.6838 2.73309 11.5505 10.0331 9.18378L12.6664 8.33378C13.5331 8.06712 14.1831 7.88378 14.7664 7.78378C15.2331 7.68378 15.7164 7.86712 15.9998 8.25045C16.2831 8.63378 16.3331 9.13378 16.1331 9.56712C15.6998 10.4504 15.3164 11.5671 14.9998 12.9671L13.3664 19.9504C11.8831 26.2505 13.5998 29.0005 19.8998 30.5005L22.6998 31.1671C23.5998 31.3838 24.4498 31.5171 25.2164 31.5838C25.7498 31.6338 26.1831 32.0004 26.3331 32.5171C26.4664 33.0338 26.2664 33.5671 25.8331 33.8671C24.7331 34.6171 23.3498 35.2504 21.5998 35.8171L18.9664 36.6838C17.0498 37.2838 15.3831 37.5838 13.8831 37.5838ZM12.9664 10.8671L10.8164 11.5671C4.86643 13.4838 3.44976 16.2838 5.36643 22.2505L7.49976 28.8338C9.43309 34.7838 12.2331 36.2171 18.1831 34.3005L20.8164 33.4338C20.9164 33.4004 20.9998 33.3671 21.0998 33.3338L19.3331 32.9171C11.6498 31.1005 9.13309 27.0338 10.9331 19.3671L12.5664 12.3838C12.6831 11.8505 12.8164 11.3338 12.9664 10.8671Z" fill="white"/>
</svg>
