<svg width="24" height="24" viewBox="0 0 24 24" fill="none" xmlns="http://www.w3.org/2000/svg">
<path d="M17.8794 17.88C17.7556 18.0019 17.5892 18.0702 17.4159 18.0702C17.2425 18.0702 17.0761 18.0019 16.9524 17.88L13.6416 14.5707L13.1778 14.1075C13.061 13.9829 12.9973 13.8175 13.0001 13.6465C13.0029 13.4755 13.0719 13.3123 13.1926 13.1916C13.3133 13.0709 13.4761 13.0022 13.6464 13C13.8167 12.9979 13.9811 13.0626 14.1048 13.1803L14.5686 13.6436L17.8794 16.951C18.002 17.0742 18.0709 17.2413 18.0709 17.4155C18.0709 17.5897 18.002 17.7568 17.8794 17.88Z" fill="#221C62"/>
<path d="M17.8087 6.19095C17.6849 6.06904 17.5185 6.00074 17.3452 6.00074C17.1718 6.00074 17.0054 6.06904 16.8817 6.19095L11.9992 11.0723L7.11972 6.19095C6.99622 6.0686 6.82971 6 6.65622 6C6.48273 6 6.31622 6.0686 6.19272 6.19095C6.07066 6.31411 6.00213 6.48079 6.00213 6.65454C6.00213 6.82829 6.07066 6.99498 6.19272 7.11813L11.0728 11.9995L6.1921 16.8809C6.13123 16.9416 6.08291 17.0138 6.04994 17.0934C6.01697 17.173 6 17.2583 6 17.3445C6 17.4306 6.01697 17.516 6.04994 17.5955C6.08291 17.6751 6.13123 17.7473 6.1921 17.8081C6.31529 17.931 6.48192 18 6.65561 18C6.82929 18 6.99592 17.931 7.11911 17.8081L17.8087 7.12304C17.8693 7.06218 17.9174 6.98991 17.9503 6.91037C17.9831 6.83082 18 6.74556 18 6.65945C18 6.57334 17.9831 6.48808 17.9503 6.40853C17.9174 6.32899 17.8693 6.25672 17.8087 6.19586V6.19095Z" fill="#221C62"/>
</svg>
