<svg width="40" height="41" viewBox="0 0 40 41" fill="none" xmlns="http://www.w3.org/2000/svg">
<path fill-rule="evenodd" clip-rule="evenodd" d="M24.3452 3.85251C24.2734 3.83969 24.1995 3.83301 24.124 3.83301C24.0486 3.83301 23.9747 3.83969 23.9029 3.85251H13.473C9.32751 3.85251 5.83301 7.21556 5.83301 11.3175V29.1725C5.83301 33.5068 9.174 36.9408 13.473 36.9408H26.788C30.8768 36.9408 34.253 33.3376 34.253 29.1725V13.8958C34.253 13.5731 34.1282 13.263 33.9047 13.0302L25.4631 4.23684C25.2274 3.9913 24.9017 3.85251 24.5613 3.85251H24.3452ZM22.874 6.35117L13.473 6.35251C10.6872 6.35251 8.33301 8.61817 8.33301 11.3175V29.1725C8.33301 32.1412 10.5703 34.4408 13.473 34.4408H26.788C29.4585 34.4408 31.753 31.992 31.753 29.1725L31.7519 15.4715L30.2933 15.4765C29.7372 15.4758 29.1047 15.4746 28.4014 15.473C25.4522 15.4668 23.0453 13.1552 22.8828 10.2453L22.874 9.93134V6.35117ZM30.3839 12.9727L28.4069 12.973C26.7311 12.9695 25.374 11.6088 25.374 9.93134V7.75429L30.3839 12.9727ZM23.8075 25.179C24.4979 25.179 25.0575 25.7387 25.0575 26.429C25.0575 27.0619 24.5872 27.5849 23.9771 27.6676L23.8075 27.679H14.8125C14.1221 27.679 13.5625 27.1194 13.5625 26.429C13.5625 25.7962 14.0328 25.2732 14.6429 25.1904L14.8125 25.179H23.8075ZM21.6543 18.1753C21.6543 17.485 21.0947 16.9253 20.4043 16.9253H14.811L14.6414 16.9368C14.0313 17.0195 13.561 17.5425 13.561 18.1753C13.561 18.8657 14.1207 19.4253 14.811 19.4253H20.4043L20.574 19.4139C21.1841 19.3312 21.6543 18.8082 21.6543 18.1753Z" fill="white"/>
</svg>
