<svg width="55" height="56" viewBox="0 0 55 56" fill="none" xmlns="http://www.w3.org/2000/svg">
<path d="M30.418 0C39.1932 16.7952 47.0664 22.7825 54.0376 17.9619C53.4145 34.567 46.957 47.2464 34.6649 56C53.9329 29.0392 31.5618 15.1366 30.418 0Z" fill="white"/>
<path d="M46.4275 15.483C43.5481 15.483 41.21 13.1449 41.21 10.2619C41.21 7.38251 43.5481 5.04437 46.4275 5.04437C49.3105 5.04437 51.6486 7.38251 51.6486 10.2619C51.6486 13.1449 49.3105 15.483 46.4275 15.483Z" fill="white"/>
<path d="M23.6196 0C14.8443 16.7952 6.97113 22.7825 0 17.9619C0.623024 34.567 7.08058 47.2464 19.3727 56C0.10464 29.0392 22.4758 15.1366 23.6196 0Z" fill="white"/>
<path d="M7.6098 15.483C10.4892 15.483 12.8273 13.1449 12.8273 10.2619C12.8273 7.38251 10.4892 5.04437 7.6098 5.04437C4.72681 5.04437 2.38867 7.38251 2.38867 10.2619C2.38867 13.1449 4.72681 15.483 7.6098 15.483Z" fill="white"/>
<path d="M34.4013 34.5381C34.4663 28.285 31.1575 22.3062 26.5101 18.1206C22.6565 21.5917 20.1921 26.2969 19.5029 31.3701L26.2503 38.1175L25.9653 38.4026L19.4415 31.8788C19.3982 32.2589 19.3646 32.6402 19.3405 33.0227L26.2503 39.9325L25.9653 40.2175L19.3153 33.5711C19.3056 33.891 19.302 34.2134 19.3044 34.5381C19.3044 34.6271 19.3056 34.7161 19.308 34.8051L26.2503 41.7474L25.9653 42.0361L19.3297 35.4005C19.6292 41.3325 22.339 46.9 26.8529 50.7969C31.5869 46.7124 34.3328 40.7876 34.4013 34.5381Z" fill="white"/>
</svg>
