<svg width="55" height="57" viewBox="0 0 55 57" fill="none" xmlns="http://www.w3.org/2000/svg">
<path d="M30.418 0.5C39.1932 17.2952 47.0664 23.2825 54.0376 18.4619C53.4145 35.067 46.957 47.7464 34.6649 56.5C53.9329 29.5392 31.5618 15.6366 30.418 0.5Z" fill="#221C62"/>
<path d="M46.4265 15.983C43.5471 15.983 41.209 13.6449 41.209 10.7619C41.209 7.88251 43.5471 5.54437 46.4265 5.54437C49.3095 5.54437 51.6476 7.88251 51.6476 10.7619C51.6476 13.6449 49.3095 15.983 46.4265 15.983Z" fill="#221C62"/>
<path d="M23.6196 0.5C14.8443 17.2952 6.97113 23.2825 0 18.4619C0.623024 35.067 7.08058 47.7464 19.3727 56.5C0.10464 29.5392 22.4758 15.6366 23.6196 0.5Z" fill="#221C62"/>
<path d="M7.6098 15.983C10.4892 15.983 12.8273 13.6449 12.8273 10.7619C12.8273 7.88251 10.4892 5.54437 7.6098 5.54437C4.72681 5.54437 2.38867 7.88251 2.38867 10.7619C2.38867 13.6449 4.72681 15.983 7.6098 15.983Z" fill="#221C62"/>
<path d="M34.4004 35.0381C34.4653 28.785 31.1565 22.8062 26.5091 18.6206C22.6555 22.0917 20.1911 26.7969 19.5019 31.8701L26.2493 38.6175L25.9643 38.9026L19.4406 32.3788C19.3973 32.7589 19.3636 33.1402 19.3395 33.5227L26.2493 40.4325L25.9643 40.7175L19.3143 34.0711C19.3047 34.391 19.3011 34.7134 19.3035 35.0381C19.3035 35.1271 19.3047 35.2161 19.3071 35.3051L26.2493 42.2474L25.9643 42.5361L19.3287 35.9005C19.6282 41.8325 22.338 47.4 26.8519 51.2969C31.5859 47.2124 34.3318 41.2876 34.4004 35.0381Z" fill="#221C62"/>
</svg>
