<svg width="40" height="41" viewBox="0 0 40 41" fill="none" xmlns="http://www.w3.org/2000/svg">
<path d="M5.83301 31.7497C5.14967 31.7497 4.58301 31.183 4.58301 30.4997V12.1663C4.58301 4.81634 6.81634 2.58301 14.1663 2.58301H25.833C33.183 2.58301 35.4163 4.81634 35.4163 12.1663V28.833C35.4163 29.0997 35.4163 29.3497 35.3997 29.6163C35.3497 30.2997 34.733 30.833 34.0663 30.783C33.383 30.733 32.8497 30.133 32.8997 29.4497C32.9163 29.2497 32.9163 29.033 32.9163 28.833V12.1663C32.9163 6.21634 31.7997 5.08301 25.833 5.08301H14.1663C8.19967 5.08301 7.08301 6.21634 7.08301 12.1663V30.4997C7.08301 31.183 6.51634 31.7497 5.83301 31.7497Z" fill="white"/>
<path d="M28.333 38.4167H11.6663C7.76634 38.4167 4.58301 35.2333 4.58301 31.3333V30.25C4.58301 26.9333 7.28301 24.25 10.583 24.25H34.1663C34.8497 24.25 35.4163 24.8167 35.4163 25.5V31.3333C35.4163 35.2333 32.233 38.4167 28.333 38.4167ZM10.583 26.75C8.64967 26.75 7.08301 28.3167 7.08301 30.25V31.3333C7.08301 33.8667 9.13301 35.9167 11.6663 35.9167H28.333C30.8663 35.9167 32.9163 33.8667 32.9163 31.3333V26.75H10.583Z" fill="white"/>
<path d="M26.6663 13.417H13.333C12.6497 13.417 12.083 12.8503 12.083 12.167C12.083 11.4837 12.6497 10.917 13.333 10.917H26.6663C27.3497 10.917 27.9163 11.4837 27.9163 12.167C27.9163 12.8503 27.3497 13.417 26.6663 13.417Z" fill="white"/>
<path d="M21.6663 19.25H13.333C12.6497 19.25 12.083 18.6833 12.083 18C12.083 17.3167 12.6497 16.75 13.333 16.75H21.6663C22.3497 16.75 22.9163 17.3167 22.9163 18C22.9163 18.6833 22.3497 19.25 21.6663 19.25Z" fill="white"/>
</svg>
