<svg width="40" height="41" viewBox="0 0 40 41" fill="none" xmlns="http://www.w3.org/2000/svg">
<path d="M19.9997 32.0833C15.633 32.0833 12.083 28.5333 12.083 24.1667C12.083 19.8 15.633 16.25 19.9997 16.25C24.3663 16.25 27.9163 19.8 27.9163 24.1667C27.9163 28.5333 24.3663 32.0833 19.9997 32.0833ZM19.9997 18.75C17.0163 18.75 14.583 21.1833 14.583 24.1667C14.583 27.15 17.0163 29.5833 19.9997 29.5833C22.983 29.5833 25.4163 27.15 25.4163 24.1667C25.4163 21.1833 22.983 18.75 19.9997 18.75Z" fill="white"/>
<path d="M19.0668 26.8833C18.5335 26.8833 18.0001 26.6833 17.6001 26.2833L16.5168 25.2C16.0335 24.7167 16.0335 23.9167 16.5168 23.4333C17.0001 22.95 17.8001 22.95 18.2835 23.4333L19.0835 24.2333L21.7668 21.7667C22.2668 21.3 23.0668 21.3333 23.5335 21.8333C24.0001 22.3333 23.9668 23.1333 23.4668 23.6L20.5001 26.3333C20.0835 26.7 19.5835 26.8833 19.0668 26.8833Z" fill="white"/>
<path d="M26.6664 38.4167H13.3331C5.63306 38.4167 4.19973 34.8333 3.83306 31.35L2.58306 18C2.39973 16.25 2.34973 13.6667 4.08306 11.7333C5.58306 10.0667 8.06639 9.26666 11.6664 9.26666H28.3331C31.9497 9.26666 34.4331 10.0833 35.9164 11.7333C37.6497 13.6667 37.5997 16.25 37.4164 18.0167L36.1664 31.3333C35.7997 34.8333 34.3664 38.4167 26.6664 38.4167ZM11.6664 11.75C8.84973 11.75 6.91639 12.3 5.93306 13.4C5.11639 14.3 4.84973 15.6833 5.06639 17.75L6.31639 31.1C6.59973 33.7333 7.3164 35.9167 13.3331 35.9167H26.6664C32.6664 35.9167 33.3997 33.7333 33.6831 31.0833L34.9331 17.7667C35.1497 15.6833 34.8831 14.3 34.0664 13.4C33.0831 12.3 31.1497 11.75 28.3331 11.75H11.6664Z" fill="white"/>
<path d="M26.6663 11.75C25.983 11.75 25.4163 11.1833 25.4163 10.5V9.16668C25.4163 6.20001 25.4163 5.08334 21.333 5.08334H18.6663C14.583 5.08334 14.583 6.20001 14.583 9.16668V10.5C14.583 11.1833 14.0163 11.75 13.333 11.75C12.6497 11.75 12.083 11.1833 12.083 10.5V9.16668C12.083 6.23334 12.083 2.58334 18.6663 2.58334H21.333C27.9163 2.58334 27.9163 6.23334 27.9163 9.16668V10.5C27.9163 11.1833 27.3497 11.75 26.6663 11.75Z" fill="white"/>
<path d="M26.6832 24.4833C26.1165 24.4833 25.6165 24.1 25.4665 23.5333C25.2998 22.8667 25.6998 22.1833 26.3665 22.0167C29.6165 21.2 32.6332 19.7833 35.3332 17.8167C35.8832 17.4167 36.6665 17.5333 37.0832 18.1C37.4832 18.65 37.3665 19.4333 36.7998 19.85C33.8332 22 30.5332 23.55 26.9665 24.45C26.8832 24.4667 26.7832 24.4833 26.6832 24.4833Z" fill="white"/>
<path d="M13.3336 24.5333C13.2336 24.5333 13.1336 24.5167 13.0336 24.5C9.68356 23.6833 6.53356 22.2667 3.65023 20.3C3.08356 19.9167 2.93356 19.1333 3.31689 18.5667C3.70023 18 4.48356 17.85 5.05023 18.2333C7.68356 20.0333 10.5502 21.3167 13.6169 22.0667C14.2836 22.2333 14.7002 22.9 14.5336 23.5833C14.4169 24.15 13.9002 24.5333 13.3336 24.5333Z" fill="white"/>
</svg>
