<svg width="41" height="41" viewBox="0 0 41 41" fill="none" xmlns="http://www.w3.org/2000/svg">
<path d="M6.16602 31.75C5.48268 31.75 4.91602 31.1833 4.91602 30.5V12.1667C4.91602 4.81668 7.14935 2.58334 14.4993 2.58334H26.166C33.516 2.58334 35.7493 4.81668 35.7493 12.1667V28.8333C35.7493 29.1 35.7493 29.35 35.7327 29.6167C35.6827 30.3 35.066 30.8333 34.3994 30.7833C33.716 30.7333 33.1827 30.1333 33.2327 29.45C33.2493 29.25 33.2493 29.0333 33.2493 28.8333V12.1667C33.2493 6.21668 32.1327 5.08334 26.166 5.08334H14.4993C8.53268 5.08334 7.41602 6.21668 7.41602 12.1667V30.5C7.41602 31.1833 6.84935 31.75 6.16602 31.75Z" fill="white"/>
<path d="M28.666 38.4167H11.9993C8.09935 38.4167 4.91602 35.2333 4.91602 31.3333V30.25C4.91602 26.9333 7.61602 24.25 10.916 24.25H34.4993C35.1827 24.25 35.7493 24.8167 35.7493 25.5V31.3333C35.7493 35.2333 32.566 38.4167 28.666 38.4167ZM10.916 26.75C8.98268 26.75 7.41602 28.3167 7.41602 30.25V31.3333C7.41602 33.8667 9.46602 35.9167 11.9993 35.9167H28.666C31.1994 35.9167 33.2493 33.8667 33.2493 31.3333V26.75H10.916Z" fill="white"/>
<path d="M26.9993 13.4167H13.666C12.9827 13.4167 12.416 12.85 12.416 12.1667C12.416 11.4833 12.9827 10.9167 13.666 10.9167H26.9993C27.6827 10.9167 28.2493 11.4833 28.2493 12.1667C28.2493 12.85 27.6827 13.4167 26.9993 13.4167Z" fill="white"/>
<path d="M21.9993 19.25H13.666C12.9827 19.25 12.416 18.6833 12.416 18C12.416 17.3167 12.9827 16.75 13.666 16.75H21.9993C22.6827 16.75 23.2493 17.3167 23.2493 18C23.2493 18.6833 22.6827 19.25 21.9993 19.25Z" fill="white"/>
</svg>
