<svg width="41" height="41" viewBox="0 0 41 41" fill="none" xmlns="http://www.w3.org/2000/svg">
<path d="M19.8333 36.75C10.4167 36.75 2.75 29.0833 2.75 19.6667C2.75 10.25 10.4167 2.58334 19.8333 2.58334C29.25 2.58334 36.9167 10.25 36.9167 19.6667C36.9167 29.0833 29.25 36.75 19.8333 36.75ZM19.8333 5.08334C11.7833 5.08334 5.25 11.6333 5.25 19.6667C5.25 27.7 11.7833 34.25 19.8333 34.25C27.8833 34.25 34.4167 27.7 34.4167 19.6667C34.4167 11.6333 27.8833 5.08334 19.8333 5.08334Z" fill="white"/>
<path d="M37.334 38.4167C37.0174 38.4167 36.7007 38.3 36.4507 38.05L33.1174 34.7167C32.634 34.2333 32.634 33.4333 33.1174 32.95C33.6007 32.4667 34.4007 32.4667 34.8841 32.95L38.2174 36.2833C38.7007 36.7667 38.7007 37.5667 38.2174 38.05C37.9674 38.3 37.6507 38.4167 37.334 38.4167Z" fill="white"/>
</svg>
